<svg width="136" height="32" viewBox="0 0 136 32" fill="none" xmlns="http://www.w3.org/2000/svg">
<g clip-path="url(#clip0_6_2)">
<path d="M5.65001 30.4C4.57588 30.4 3.54575 29.9733 2.78622 29.2138C2.0267 28.4543 1.60001 27.4241 1.60001 26.35L1.60001 14.65C1.60001 13.5759 2.0267 12.5457 2.78622 11.7862C3.54575 11.0267 4.57588 10.6 5.65001 10.6H7.90001V17.35C7.90001 19.1402 8.61117 20.8571 9.87704 22.123C11.1429 23.3888 12.8598 24.1 14.65 24.1H21.4V26.35C21.4 27.4241 20.9733 28.4543 20.2138 29.2138C19.4543 29.9733 18.4241 30.4 17.35 30.4H5.65001Z" fill="white"/>
<path d="M10.6 17.35C10.6 18.4241 11.0267 19.4543 11.7862 20.2138C12.5457 20.9733 13.5759 21.4 14.65 21.4H26.35C27.4241 21.4 28.4543 20.9733 29.2138 20.2138C29.9733 19.4543 30.4 18.4241 30.4 17.35V5.65C30.4 4.57587 29.9733 3.54574 29.2138 2.78622C28.4543 2.0267 27.4241 1.6 26.35 1.6H14.65C13.5759 1.6 12.5457 2.0267 11.7862 2.78622C11.0267 3.54574 10.6 4.57587 10.6 5.65L10.6 17.35Z" fill="#1D4ED8"/>
<path d="M41.517 24V6.54545H53.0739V9.58807H45.2074V13.7472H52.3068V16.7898H45.2074V24H41.517Z" fill="white"/>
<path d="M61.0795 6.54545V24H57.4489V6.54545H61.0795Z" fill="white"/>
<path d="M69.1818 24.2472C68.3466 24.2472 67.6023 24.1023 66.9489 23.8125C66.2955 23.517 65.7784 23.0824 65.3977 22.5085C65.0227 21.929 64.8352 21.2074 64.8352 20.3438C64.8352 19.6165 64.9688 19.0057 65.2358 18.5114C65.5028 18.017 65.8665 17.6193 66.3267 17.3182C66.7869 17.017 67.3097 16.7898 67.8949 16.6364C68.4858 16.483 69.1051 16.375 69.7528 16.3125C70.5142 16.233 71.1278 16.1591 71.5938 16.0909C72.0597 16.017 72.3977 15.9091 72.608 15.767C72.8182 15.625 72.9233 15.4148 72.9233 15.1364V15.0852C72.9233 14.5455 72.7528 14.1278 72.4119 13.8324C72.0767 13.5369 71.5994 13.3892 70.9801 13.3892C70.3267 13.3892 69.8068 13.5341 69.4205 13.8239C69.0341 14.108 68.7784 14.4659 68.6534 14.8977L65.2955 14.625C65.4659 13.8295 65.8011 13.142 66.3011 12.5625C66.8011 11.9773 67.446 11.5284 68.2358 11.2159C69.0313 10.8977 69.9517 10.7386 70.9972 10.7386C71.7244 10.7386 72.4205 10.8239 73.0852 10.9943C73.7557 11.1648 74.3494 11.429 74.8665 11.7869C75.3892 12.1449 75.8011 12.6051 76.1023 13.1676C76.4034 13.7244 76.554 14.392 76.554 15.1705V24H73.1108V22.1847H73.0085C72.7983 22.5938 72.517 22.9545 72.1648 23.267C71.8125 23.5739 71.3892 23.8153 70.8949 23.9915C70.4006 24.1619 69.8295 24.2472 69.1818 24.2472ZM70.2216 21.7415C70.7557 21.7415 71.2273 21.6364 71.6364 21.4261C72.0455 21.2102 72.3665 20.9205 72.5994 20.5568C72.8324 20.1932 72.9489 19.7812 72.9489 19.321V17.9318C72.8352 18.0057 72.679 18.0739 72.4801 18.1364C72.2869 18.1932 72.0682 18.2472 71.8239 18.2983C71.5795 18.3437 71.3352 18.3864 71.0909 18.4261C70.8466 18.4602 70.625 18.4915 70.4261 18.5199C70 18.5824 69.6278 18.6818 69.3097 18.8182C68.9915 18.9545 68.7443 19.1392 68.5682 19.3722C68.392 19.5994 68.304 19.8835 68.304 20.2244C68.304 20.7188 68.483 21.0966 68.8409 21.358C69.2045 21.6136 69.6648 21.7415 70.2216 21.7415Z" fill="white"/>
<path d="M87.4119 10.9091V13.6364H79.5284V10.9091H87.4119ZM81.3182 7.77273H84.9489V19.9773C84.9489 20.3125 85 20.5739 85.1023 20.7614C85.2045 20.9432 85.3466 21.071 85.5284 21.1449C85.7159 21.2187 85.9318 21.2557 86.1761 21.2557C86.3466 21.2557 86.517 21.2415 86.6875 21.2131C86.858 21.179 86.9886 21.1534 87.0795 21.1364L87.6506 23.8381C87.4688 23.8949 87.2131 23.9602 86.8835 24.0341C86.554 24.1136 86.1534 24.1619 85.6818 24.179C84.8068 24.2131 84.0398 24.0966 83.3807 23.8295C82.7273 23.5625 82.2188 23.1477 81.8551 22.5852C81.4915 22.0227 81.3125 21.3125 81.3182 20.4545V7.77273Z" fill="white"/>
<path d="M91.4489 24V10.9091H94.9091V13.2188H95.0625C95.3352 12.4517 95.7898 11.8466 96.4261 11.4034C97.0625 10.9602 97.8239 10.7386 98.7102 10.7386C99.608 10.7386 100.372 10.9631 101.003 11.4119C101.634 11.8551 102.054 12.4574 102.264 13.2188H102.401C102.668 12.4688 103.151 11.8693 103.849 11.4205C104.554 10.9659 105.386 10.7386 106.347 10.7386C107.568 10.7386 108.56 11.1278 109.321 11.9062C110.088 12.679 110.472 13.7756 110.472 15.196V24H106.849V15.9119C106.849 15.1847 106.656 14.6392 106.27 14.2756C105.884 13.9119 105.401 13.7301 104.821 13.7301C104.162 13.7301 103.648 13.9403 103.278 14.3608C102.909 14.7756 102.724 15.3239 102.724 16.0057V24H99.2045V15.8352C99.2045 15.1932 99.0199 14.6818 98.6506 14.3011C98.2869 13.9205 97.8068 13.7301 97.2102 13.7301C96.8068 13.7301 96.4432 13.8324 96.1193 14.0369C95.8011 14.2358 95.5483 14.517 95.3608 14.8807C95.1733 15.2386 95.0795 15.6591 95.0795 16.142V24H91.4489Z" fill="white"/>
<path d="M114.449 24V10.9091H118.08V24H114.449ZM116.273 9.22159C115.733 9.22159 115.27 9.04261 114.884 8.68466C114.503 8.32102 114.312 7.88636 114.312 7.38068C114.312 6.88068 114.503 6.4517 114.884 6.09375C115.27 5.73011 115.733 5.54829 116.273 5.54829C116.813 5.54829 117.273 5.73011 117.653 6.09375C118.04 6.4517 118.233 6.88068 118.233 7.38068C118.233 7.88636 118.04 8.32102 117.653 8.68466C117.273 9.04261 116.813 9.22159 116.273 9.22159Z" fill="white"/>
<path d="M126.08 16.4318V24H122.449V10.9091H125.909V13.2188H126.062C126.352 12.4574 126.838 11.8551 127.52 11.4119C128.202 10.9631 129.028 10.7386 130 10.7386C130.909 10.7386 131.702 10.9375 132.378 11.3352C133.054 11.733 133.58 12.3011 133.955 13.0398C134.33 13.7727 134.517 14.6477 134.517 15.6648V24H130.886V16.3125C130.892 15.5114 130.688 14.8864 130.273 14.4375C129.858 13.983 129.287 13.7557 128.56 13.7557C128.071 13.7557 127.639 13.8608 127.264 14.071C126.895 14.2812 126.605 14.5881 126.395 14.9915C126.19 15.3892 126.085 15.8693 126.08 16.4318Z" fill="white"/>
</g>
<defs>
<clipPath id="clip0_6_2">
<rect width="136" height="32" fill="white"/>
</clipPath>
</defs>
</svg>
