<svg width="32" height="32" viewBox="0 0 32 32" fill="none" xmlns="http://www.w3.org/2000/svg">
<g clip-path="url(#clip0_2_43)">
<path d="M5.65 30.4C4.57587 30.4 3.54574 29.9733 2.78622 29.2138C2.02669 28.4543 1.6 27.4241 1.6 26.35L1.6 14.65C1.6 13.5759 2.02669 12.5457 2.78622 11.7862C3.54574 11.0267 4.57587 10.6 5.65 10.6H7.9V17.35C7.9 19.1402 8.61116 20.8571 9.87703 22.123C11.1429 23.3888 12.8598 24.1 14.65 24.1H21.4V26.35C21.4 27.4241 20.9733 28.4543 20.2138 29.2138C19.4543 29.9733 18.4241 30.4 17.35 30.4H5.65Z" fill="#1F2937"/>
<path d="M10.6 17.35C10.6 18.4241 11.0267 19.4543 11.7862 20.2138C12.5457 20.9733 13.5759 21.4 14.65 21.4H26.35C27.4241 21.4 28.4543 20.9733 29.2138 20.2138C29.9733 19.4543 30.4 18.4241 30.4 17.35V5.65C30.4 4.57587 29.9733 3.54574 29.2138 2.78622C28.4543 2.0267 27.4241 1.6 26.35 1.6H14.65C13.5759 1.6 12.5457 2.0267 11.7862 2.78622C11.0267 3.54574 10.6 4.57587 10.6 5.65L10.6 17.35Z" fill="#1D4ED8"/>
</g>
<defs>
<clipPath id="clip0_2_43">
<rect width="32" height="32" fill="white"/>
</clipPath>
</defs>
</svg>
